<?xml version="1.0" encoding="UTF-8" standalone="no"?>
<svg width="400px" height="400px" viewBox="0 0 400 400" version="1.1" xmlns="http://www.w3.org/2000/svg" xmlns:xlink="http://www.w3.org/1999/xlink" style="background: #FFD5AF;">
    <!-- Generator: Sketch 3.7 (28169) - http://www.bohemiancoding.com/sketch -->
    <title>r-dot_questa-grande copy 2</title>
    <desc>Created with Sketch.</desc>
    <defs></defs>
    <g id="Page-1" stroke="none" stroke-width="1" fill="none" fill-rule="evenodd">
        <g id="r-dot_questa-grande-copy-2">
            <g id="Group" transform="translate(73.000000, 100.000000)">
                <path d="M217.546118,181.981982 C217.546118,191.291291 225.954526,199.6997 235.263835,199.6997 C244.873445,199.6997 253.281853,191.291291 253.281853,181.981982 C253.281853,172.672673 244.873445,164.264264 235.263835,164.264264 C225.954526,164.264264 217.546118,172.672673 217.546118,181.981982 L217.546118,181.981982 Z" id="R." fill="#FFFFFF"></path>
                <path d="M0,198.498498 L82.5825826,198.498498 L82.5825826,193.993994 L56.1561562,193.993994 L56.1561562,101.801802 L82.8828829,101.801802 C108.408408,101.801802 111.411411,132.432432 112.612613,149.84985 C113.813814,166.666667 117.417417,200 151.351351,200 C166.966967,200 175.975976,191.891892 176.276276,173.573574 L171.771772,173.573574 C171.771772,184.684685 166.666667,193.393393 158.858859,193.393393 C147.147147,193.393393 146.846847,178.678679 145.945946,154.354354 C144.744745,122.222222 124.924925,106.006006 97.8978979,99.6996997 L97.8978979,99.0990991 C136.636637,91.8918919 151.351351,74.1741742 151.351351,50.4504505 C151.351351,20.7207207 131.831832,0 80.1801802,0 L0,0 L0,4.5045045 L26.7267267,4.5045045 L26.7267267,193.993994 L0,193.993994 L0,198.498498 Z M56.1561562,97.2972973 L56.1561562,4.5045045 L80.7807808,4.5045045 C109.60961,4.5045045 119.51952,21.3213213 119.51952,52.2522523 C119.51952,82.2822823 110.510511,97.2972973 82.2822823,97.2972973 L56.1561562,97.2972973 Z" id="R.-Copy" fill="#333333"></path>
            </g>
        </g>
    </g>
</svg>