<?xml version="1.0" encoding="UTF-8" standalone="no"?>
<svg width="21px" height="20px" viewBox="0 0 21 20" version="1.1" xmlns="http://www.w3.org/2000/svg" xmlns:xlink="http://www.w3.org/1999/xlink">
    <!-- Generator: Sketch 3.7 (28169) - http://www.bohemiancoding.com/sketch -->
    <title>zoom-in</title>
    <desc>Created with Sketch.</desc>
    <defs>
        <path d="M0,7.27272727 C0,11.0939908 3.45146379,14.5454545 7.27272727,14.5454545 C11.2172573,14.5454545 14.6687211,11.0939908 14.6687211,7.27272727 C14.6687211,3.45146379 11.2172573,0 7.27272727,0 C3.45146379,0 0,3.45146379 0,7.27272727 L0,7.27272727 Z" id="path-1"></path>
        <mask id="mask-2" maskContentUnits="userSpaceOnUse" maskUnits="objectBoundingBox" x="0" y="0" width="14.6687211" height="14.5454545" fill="white">
            <use xlink:href="#path-1"></use>
        </mask>
    </defs>
    <g id="Page-1" stroke="none" stroke-width="1" fill="none" fill-rule="evenodd">
        <g id="Artboard-11" transform="translate(-219.000000, -140.000000)">
            <g id="zoom-in" transform="translate(219.000000, 140.000000)">
                <rect id="handle" fill="#FFD5AF" transform="translate(14.800000, 14.545455) scale(-1, 1) rotate(-315.000000) translate(-14.800000, -14.545455) " x="13.8181818" y="8" width="1.9636364" height="13.0909091"></rect>
                <use id="glas" stroke="#FFD5AF" mask="url(#mask-2)" stroke-width="4" fill="#FFFFFF" xlink:href="#path-1"></use>
                <g id="plus" transform="translate(4.000000, 4.000000)" fill="#FFD5AF">
                    <rect id="Rectangle-60" x="2.29090909" y="0" width="1.96363636" height="6.54545455"></rect>
                    <rect id="Rectangle-60-Copy" transform="translate(3.272727, 3.272727) rotate(-270.000000) translate(-3.272727, -3.272727) " x="2.29090909" y="0" width="1.96363636" height="6.54545455"></rect>
                </g>
            </g>
        </g>
    </g>
</svg>